<?xml version="1.0" encoding="UTF-8" standalone="no"?>
<svg
   xmlns:dc="http://purl.org/dc/elements/1.1/"
   xmlns:cc="http://creativecommons.org/ns#"
   xmlns:rdf="http://www.w3.org/1999/02/22-rdf-syntax-ns#"
   xmlns:svg="http://www.w3.org/2000/svg"
   xmlns="http://www.w3.org/2000/svg"
   xmlns:sodipodi="http://sodipodi.sourceforge.net/DTD/sodipodi-0.dtd"
   xmlns:inkscape="http://www.inkscape.org/namespaces/inkscape"
   width="320"
   height="88.410606"
   viewBox="0 0 84.666667 23.391973"
   version="1.1"
   id="svg1103"
   inkscape:version="1.0.2 (e86c870879, 2021-01-15, custom)"
   sodipodi:docname="logo.svg">
  <defs
     id="defs1097">
    <inkscape:path-effect
       effect="fillet_chamfer"
       id="path-effect1230"
       is_visible="true"
       lpeversion="1"
       satellites_param="F,0,0,1,0,0,0,1 @ F,0,0,1,0,0.26458333,0,1 @ F,0,0,1,0,0.26458333,0,1 @ F,0,0,1,0,0,0,1"
       unit="px"
       method="auto"
       mode="F"
       radius="1"
       chamfer_steps="1"
       flexible="false"
       use_knot_distance="true"
       apply_no_radius="true"
       apply_with_radius="true"
       only_selected="false"
       hide_knots="false" />
    <inkscape:path-effect
       effect="fillet_chamfer"
       id="path-effect1207"
       is_visible="true"
       lpeversion="1"
       satellites_param="F,0,0,1,0,0,0,1 @ F,0,0,1,0,0.26458333,0,1 @ F,0,0,1,0,0.26458333,0,1 @ F,0,0,1,0,0,0,1"
       unit="px"
       method="auto"
       mode="F"
       radius="1"
       chamfer_steps="1"
       flexible="false"
       use_knot_distance="true"
       apply_no_radius="true"
       apply_with_radius="true"
       only_selected="false"
       hide_knots="false" />
    <inkscape:path-effect
       effect="fillet_chamfer"
       id="path-effect1182"
       is_visible="true"
       lpeversion="1"
       satellites_param="F,0,0,1,0,0.52916667,0,1 @ F,0,0,1,0,0.52916667,0,1 @ F,0,0,1,0,0.52916667,0,1 @ F,0,0,1,0,0.52916667,0,1 @ F,0,0,1,0,0.52916667,0,1"
       unit="px"
       method="auto"
       mode="F"
       radius="2"
       chamfer_steps="1"
       flexible="false"
       use_knot_distance="true"
       apply_no_radius="true"
       apply_with_radius="true"
       only_selected="false"
       hide_knots="false" />
    <inkscape:path-effect
       effect="fillet_chamfer"
       id="path-effect1164"
       is_visible="true"
       lpeversion="1"
       satellites_param="F,0,0,1,0,0.52916667,0,1 @ F,0,0,1,0,0.52916667,0,1 @ F,0,0,1,0,0.52916667,0,1 @ F,0,0,1,0,0.52916667,0,1 @ F,0,0,1,0,0.52916667,0,1"
       unit="px"
       method="auto"
       mode="F"
       radius="2"
       chamfer_steps="1"
       flexible="false"
       use_knot_distance="true"
       apply_no_radius="true"
       apply_with_radius="true"
       only_selected="false"
       hide_knots="false" />
    <inkscape:path-effect
       effect="fillet_chamfer"
       id="path-effect1146"
       is_visible="true"
       lpeversion="1"
       satellites_param="F,0,0,1,0,0.52916667,0,1 @ F,0,0,1,0,0.52916667,0,1 @ F,0,0,1,0,0.52916667,0,1 @ F,0,0,1,0,0.52916667,0,1 @ F,0,0,1,0,0.52916667,0,1"
       unit="px"
       method="auto"
       mode="F"
       radius="2"
       chamfer_steps="1"
       flexible="false"
       use_knot_distance="true"
       apply_no_radius="true"
       apply_with_radius="true"
       only_selected="false"
       hide_knots="false" />
    <inkscape:path-effect
       effect="fillet_chamfer"
       id="path-effect1111"
       is_visible="true"
       lpeversion="1"
       satellites_param="F,0,0,1,0,0.52916667,0,1 @ F,0,0,1,0,0.52916667,0,1 @ F,0,0,1,0,0.52916667,0,1 @ F,0,0,1,0,0.52916667,0,1 @ F,0,0,1,0,0.52916667,0,1"
       unit="px"
       method="auto"
       mode="F"
       radius="2"
       chamfer_steps="1"
       flexible="false"
       use_knot_distance="true"
       apply_no_radius="true"
       apply_with_radius="true"
       only_selected="false"
       hide_knots="false" />
  </defs>
  <sodipodi:namedview
     id="base"
     pagecolor="#ffffff"
     bordercolor="#666666"
     borderopacity="1.0"
     inkscape:pageopacity="1"
     inkscape:pageshadow="2"
     inkscape:zoom="1.979899"
     inkscape:cx="52.269735"
     inkscape:cy="51.882553"
     inkscape:document-units="mm"
     inkscape:current-layer="layer1"
     inkscape:document-rotation="0"
     showgrid="false"
     units="px"
     inkscape:snap-intersection-paths="false"
     inkscape:snap-midpoints="true"
     inkscape:snap-object-midpoints="true"
     inkscape:snap-bbox="true"
     inkscape:bbox-paths="true"
     inkscape:bbox-nodes="true"
     fit-margin-top="0"
     fit-margin-left="0"
     fit-margin-right="0"
     fit-margin-bottom="0"
     inkscape:window-width="1920"
     inkscape:window-height="1017"
     inkscape:window-x="0"
     inkscape:window-y="0"
     inkscape:window-maximized="1"
     showguides="false"
     inkscape:pagecheckerboard="false" />
  <metadata
     id="metadata1100">
    <rdf:RDF>
      <cc:Work
         rdf:about="">
        <dc:format>image/svg+xml</dc:format>
        <dc:type
           rdf:resource="http://purl.org/dc/dcmitype/StillImage" />
        <dc:title />
      </cc:Work>
    </rdf:RDF>
  </metadata>
  <g
     inkscape:label="图层 1"
     inkscape:groupmode="layer"
     id="layer1"
     transform="translate(-15.270376,-46.689781)">
    <rect
       style="fill:#ffffff;fill-opacity:1;stroke:none;stroke-width:0;stroke-linecap:round;stroke-miterlimit:4;stroke-dasharray:none;stroke-opacity:1;stop-color:#000000"
       id="rect1309"
       width="84.666664"
       height="23.391956"
       x="15.270376"
       y="46.689781" />
    <path
       d="m 23.577237,70.081734 q -1.928624,0 -3.485299,-0.688792 -1.542901,-0.688792 -2.64497,-2.107702 -2.176592,-2.824042 -2.176592,-7.852218 0,-3.361299 0.991864,-5.744515 0.991864,-2.396994 2.851608,-3.66437 1.873522,-1.281149 4.463389,-1.281149 1.336261,0 2.397008,0.261759 1.074517,0.261734 2.162813,0.867878 v 2.851594 q -1.00564,-0.840325 -2.190368,-1.281149 -1.198501,-0.440827 -2.383227,-0.440827 -2.686298,0 -4.036338,2.093923 -1.350037,2.093925 -1.350037,6.323101 0,8.403253 5.413925,8.403253 1.184728,0 2.383232,-0.440826 1.157173,-0.440827 2.162813,-1.281155 v 2.851597 q -1.088296,0.564808 -2.176589,0.854102 -1.102072,0.275517 -2.383232,0.275517 z"
       style="font-style:normal;font-variant:normal;font-weight:normal;font-stretch:normal;font-size:10.5833px;line-height:1.25;font-family:Hack;-inkscape-font-specification:'Hack, Normal';font-variant-ligatures:normal;font-variant-caps:normal;font-variant-numeric:normal;font-variant-east-asian:normal;letter-spacing:0px;word-spacing:0px;fill:#ff5c43;fill-opacity:1;stroke:none;stroke-width:0.264583"
       id="path1237" />
    <path
       d="m 37.545994,51.456822 q -0.413278,0 -0.413278,-0.413275 v -2.383215 q 0,-0.413275 0.413278,-0.413275 h 1.983728 q 0.413277,0 0.413277,0.413275 v 2.383215 q 0,0.413275 -0.413277,0.413275 z m 4.628698,18.335618 q -2.273021,0 -3.526626,-1.460237 -1.23983,-1.474013 -1.23983,-4.132747 v -7.962423 h -3.375095 v -1.98372 h 5.909858 v 9.946143 q 0,1.680651 0.633691,2.562304 0.633693,0.881654 1.84597,0.881654 h 2.961814 v 2.149026 z"
       style="font-style:normal;font-variant:normal;font-weight:normal;font-stretch:normal;font-size:10.5833px;line-height:1.25;font-family:Hack;-inkscape-font-specification:'Hack, Normal';font-variant-ligatures:normal;font-variant-caps:normal;font-variant-numeric:normal;font-variant-east-asian:normal;letter-spacing:0px;word-spacing:0px;fill:#ff5c43;fill-opacity:1;stroke:none;stroke-width:0.264583"
       id="path1239" />
    <path
       d="m 61.750265,69.737336 q -2.837832,0 -4.02256,-1.143392 -1.170949,-1.15717 -1.170949,-3.939885 v -8.430802 h -4.118992 v -1.969944 h 4.118992 v -4.036315 l 2.534763,-1.102064 v 5.138379 h 5.758322 v 1.969944 h -5.758322 v 8.430802 q 0,1.694427 0.647469,2.383216 0.647464,0.675016 2.259245,0.675016 h 2.851608 v 2.025045 z"
       style="font-style:normal;font-variant:normal;font-weight:normal;font-stretch:normal;font-size:10.5833px;line-height:1.25;font-family:Hack;-inkscape-font-specification:'Hack, Normal';font-variant-ligatures:normal;font-variant-caps:normal;font-variant-numeric:normal;font-variant-east-asian:normal;letter-spacing:0px;word-spacing:0px;fill:#c1d7c5;fill-opacity:1;stroke:none;stroke-width:0.264583"
       id="path1242" />
    <path
       d="m 71.779116,54.253313 h 2.300576 l 0.247973,3.016906 q 0.647466,-1.639322 1.942402,-2.5072 1.308707,-0.88165 3.127126,-0.88165 1.901074,0 3.306216,0.964304 v 2.589856 q -1.487798,-1.212272 -3.52663,-1.212272 -2.341904,0 -3.595509,1.501562 -1.253605,1.48779 -1.253605,4.284283 v 7.67313 h -2.548541 z"
       style="font-style:normal;font-variant:normal;font-weight:normal;font-stretch:normal;font-size:10.5833px;line-height:1.25;font-family:Hack;-inkscape-font-specification:'Hack, Normal';font-variant-ligatures:normal;font-variant-caps:normal;font-variant-numeric:normal;font-variant-east-asian:normal;letter-spacing:0px;word-spacing:0px;fill:#c1d7c5;fill-opacity:1;stroke:none;stroke-width:0.264583"
       id="path1244" />
    <path
       d="m 93.944528,70.081734 q -3.567957,0 -5.606789,-2.135254 -2.025053,-2.149026 -2.025053,-5.854725 0,-2.300562 0.799,-4.160296 0.812776,-1.859736 2.397005,-2.948026 1.598003,-1.102064 3.939904,-1.102064 3.085803,0 4.780237,1.983717 1.708208,1.969941 1.708208,5.469003 V 62.57391 H 88.957654 v 0.08267 q 0,2.410768 1.267384,3.843454 1.267381,1.432685 3.747042,1.432685 1.432691,0 2.768955,-0.454603 1.350035,-0.454602 2.603643,-1.102064 v 2.520976 q -1.30871,0.537256 -2.65875,0.854102 -1.336258,0.330618 -2.7414,0.330618 z m 3.45775,-9.491541 q 0,-1.281152 -0.385726,-2.314339 -0.385725,-1.033187 -1.239832,-1.639323 -0.840328,-0.606136 -2.231693,-0.606136 -1.405141,0 -2.35568,0.61991 -0.936757,0.606138 -1.474019,1.639325 -0.523485,1.033187 -0.661242,2.300563 z"
       style="font-style:normal;font-variant:normal;font-weight:normal;font-stretch:normal;font-size:10.5833px;line-height:1.25;font-family:Hack;-inkscape-font-specification:'Hack, Normal';font-variant-ligatures:normal;font-variant-caps:normal;font-variant-numeric:normal;font-variant-east-asian:normal;letter-spacing:0px;word-spacing:0px;fill:#c1d7c5;fill-opacity:1;stroke:none;stroke-width:0.264583"
       id="path1246" />
    <g
       id="g1235"
       transform="matrix(2.6658065,0,0,2.9883802,-22.199273,-95.946908)"
       style="stroke:#2a2a2a;stroke-width:0.22497874;stroke-miterlimit:4;stroke-dasharray:none;stroke-opacity:1">
      <path
         style="fill:none;stroke:#2a2a2a;stroke-width:0.22497874;stroke-linecap:butt;stroke-linejoin:miter;stroke-miterlimit:4;stroke-dasharray:none;stroke-opacity:1"
         d="m 25.88125,47.855474 h 0.607363 a 0.26458333,0.26458333 45 0 1 0.264583,0.264583 v 6.947665 a 0.26458333,0.26458333 135 0 1 -0.264583,0.264583 l -0.522081,0"
         id="path1205"
         sodipodi:nodetypes="cccc"
         inkscape:path-effect="#path-effect1207"
         inkscape:original-d="m 25.88125,47.855474 h 0.871946 v 7.476831 h -0.786664" />
      <path
         style="fill:none;stroke:#2a2a2a;stroke-width:0.22497874;stroke-linecap:butt;stroke-linejoin:miter;stroke-miterlimit:4;stroke-dasharray:none;stroke-opacity:1"
         d="m 27.625142,47.855474 h -0.607363 a 0.26458333,0.26458333 135 0 0 -0.264583,0.264583 v 6.947665 a 0.26458333,0.26458333 45 0 0 0.264583,0.264583 l 0.522081,0"
         id="path1205-6"
         sodipodi:nodetypes="cccc"
         inkscape:path-effect="#path-effect1230"
         inkscape:original-d="m 27.625142,47.855474 h -0.871946 v 7.476831 h 0.786664" />
    </g>
  </g>
</svg>
